<svg id="Capa_1" enable-background="new 0 0 512 512" height="512" viewBox="0 0 512 512" width="512" xmlns="http://www.w3.org/2000/svg"><g><circle cx="256" cy="145.067" r="10.02"/><path d="m308.514 119.573c2.962-4.687 1.563-10.888-3.124-13.85-8.813-5.568-27.187-14.849-51.365-14.317-21.191.452-37.482 8.036-47.416 14.319-4.686 2.963-6.082 9.165-3.12 13.851 1.911 3.021 5.167 4.675 8.495 4.675 1.834 0 3.691-.503 5.356-1.556 7.781-4.921 20.537-10.861 37.115-11.215 18.89-.413 33.305 6.855 40.21 11.217 4.688 2.962 10.887 1.563 13.849-3.124z"/><path d="m326.476 65.359c-14.435-8.792-38.051-19.362-68.574-19.79-32.206-.463-57.139 10.511-72.377 19.789-4.735 2.883-6.237 9.06-3.355 13.795 1.891 3.105 5.197 4.82 8.585 4.82 1.778 0 3.58-.473 5.211-1.466 12.984-7.904 34.232-17.25 61.654-16.862 25.995.365 46.114 9.371 58.414 16.861 4.733 2.885 10.911 1.383 13.796-3.352 2.882-4.735 1.381-10.911-3.354-13.795z"/><path d="m304.715 254.046c.497-2.228.241-4.702.241-6.968 0-22.519-18.32-40.839-40.839-40.839s-40.839 18.342-40.839 40.888v3.719c.015 25.044 16.685 43.178 40.372 44.281 4.966.231 9.953.15 14.785-1.146 4.389-1.177 9.77-3.114 12.028-7.374 4.2-7.923-3.789-17.178-12.238-14.167-2.054.732-3.762 1.932-5.948 2.361-2.523.495-5.141.388-7.694.268-10.408-.484-16.329-6.171-19.113-13.267h49.446c4.649.003 8.788-3.222 9.799-7.756zm-60.649-12.322c2.379-8.863 10.468-15.406 20.051-15.406 9.625 0 17.741 6.584 20.081 15.484z"/><path d="m394.124 251.862v-4.783c0-22.519-18.321-40.839-40.839-40.839s-40.839 18.342-40.839 40.888v3.595c.015 25.044 16.685 43.303 40.372 44.406 4.967.231 9.953.15 14.785-1.146 4.388-1.177 9.77-3.114 12.028-7.374 4.2-7.923-3.789-17.178-12.238-14.167-2.054.732-3.762 1.932-5.948 2.361-2.522.495-5.141.388-7.694.268-10.408-.484-16.329-6.171-19.113-13.267l49.426.096c5.475.001 10.06-4.556 10.06-10.038zm-60.89-10.138c2.379-8.863 10.468-15.406 20.051-15.406 9.624 0 17.741 6.584 20.081 15.484z"/><path d="m269.871 320.586c-5.544 0-10.039 4.495-10.039 10.039v80.02c0 5.545 4.495 10.039 10.039 10.039s10.039-4.495 10.039-10.039v-80.02c0-5.545-4.495-10.039-10.039-10.039z"/><path d="m370.781 330.625v80.02c0 5.545 4.495 10.039 10.039 10.039s10.039-4.495 10.039-10.039v-80.02c0-5.545-4.495-10.039-10.039-10.039s-10.039 4.494-10.039 10.039z"/><path d="m346.84 340.956c5.544 0 10.039-4.494 10.039-10.039s-4.495-10.039-10.039-10.039h-36.462c-5.544 0-10.039 4.495-10.039 10.039v79.435c0 5.545 4.495 10.039 10.039 10.039s10.039-4.495 10.039-10.039v-30.431h23.526c5.544 0 10.039-4.495 10.039-10.039s-4.495-10.039-10.039-10.039h-23.526v-18.887z"/><path d="m139.523 413.19c1.834 4.561 6.238 7.495 11.238 7.495h.097c5.036-.038 9.437-3.045 11.212-7.659.036-.094 18.204-51.917 18.204-51.917s18.125 51.937 18.184 52.082c1.834 4.561 6.238 7.495 11.238 7.495h.093c5.035-.037 9.437-3.041 11.214-7.654.176-.456 18.153-80.05 18.153-80.05 1.22-5.409-2.176-10.782-7.585-12.001-5.417-1.222-10.782 2.177-12.001 7.586l-11.533 51.165-18.287-52.412c-1.825-5.235-7.551-7.999-12.785-6.172-3.32 1.158-5.64 3.886-6.431 7.06l-18.064 51.527-11.493-51.303c-1.212-5.411-6.588-8.81-11.99-7.602-5.411 1.212-8.815 6.581-7.602 11.991-.001-.002 17.935 79.865 18.138 80.369z"/><path d="m183.391 472.344h145.217c5.544 0 10.039-4.495 10.039-10.039 0-5.545-4.495-10.039-10.039-10.039h-145.217c-5.544 0-10.039 4.495-10.039 10.039 0 5.545 4.495 10.039 10.039 10.039z"/><path d="m190.855 196.737c-5.534 0-10.02 4.486-10.02 10.02v77.185c0 5.534 4.486 10.02 10.02 10.02s10.02-4.486 10.02-10.02v-45.577c0-.467.249-4.812 8.863-13.425 6.22-6.22 14.593-10.862 14.748-10.947 4.85-2.652 6.637-8.732 3.99-13.587-2.649-4.859-8.735-6.649-13.593-4.001-.354.193-7.102 3.902-14.045 9.61-.382-5.186-4.7-9.278-9.983-9.278z"/><path d="m151.916 178.285c1.218-1.002 5.235-1.178 7.882-.662 5.395 1.112 10.676-2.342 11.82-7.736 1.148-5.413-2.31-10.732-7.724-11.88-1.524-.323-15.159-2.935-24.588 4.704-3.629 2.94-7.954 8.467-7.954 18.103v16.695h-3.187c-5.534 0-10.02 4.486-10.02 10.02s4.486 10.02 10.02 10.02h3.187v66.394c0 5.534 4.486 10.02 10.02 10.02s10.02-4.486 10.02-10.02v-66.394h7.42c5.534 0 10.02-4.486 10.02-10.02s-4.486-10.02-10.02-10.02h-7.42v-16.695c-.001-1.255.21-2.271.524-2.529z"/><circle cx="256" cy="501.98" r="10.02"/><path d="m413.13 0h-314.26c-22.099 0-40.078 17.979-40.078 40.078v431.843c0 22.1 17.979 40.079 40.078 40.079h112.216c5.534 0 10.02-4.486 10.02-10.02s-4.486-10.02-10.02-10.02h-112.216c-11.049 0-20.039-8.99-20.039-20.039v-431.843c0-11.049 8.99-20.039 20.039-20.039h314.26c11.049 0 20.039 8.99 20.039 20.039v431.843c0 11.049-8.99 20.039-20.039 20.039h-112.217c-5.534 0-10.02 4.486-10.02 10.02s4.487 10.02 10.02 10.02h112.217c22.099 0 40.078-17.979 40.078-40.078v-431.844c0-22.099-17.979-40.078-40.078-40.078z"/></g></svg>