<svg id="Capa_1" enable-background="new 0 0 512 512" height="512" viewBox="0 0 512 512" width="512" xmlns="http://www.w3.org/2000/svg"><g><path d="m232.061 337.611c0-15.336 7.286-22.508 14.599-29.68 5.017-4.961 10.063-9.922 10.063-19.05 0-25.255 0-50.541 0-75.827 0-4.139 3.346-7.484 7.512-7.484h37.135c4.139 0 7.512 3.346 7.512 7.484v75.827c0 9.128 5.046 14.089 10.063 19.05 7.313 7.172 14.599 14.344 14.599 29.68v77.783h17.887v-231.367c-86.77 0-173.539 0-260.309 0v231.367h17.915v-77.783c0-15.336 7.285-22.508 14.57-29.68 5.046-4.961 10.091-9.922 10.091-19.05 0-25.255 0-50.541 0-75.827 0-4.139 3.345-7.484 7.483-7.484h37.163c4.139 0 7.512 3.346 7.512 7.484v75.827c0 9.128 5.018 14.089 10.064 19.05 7.285 7.172 14.598 14.344 14.598 29.68v77.783h21.543zm78.662-199.476c-4.139 0-7.512-3.345-7.512-7.483 0-4.168 3.373-7.513 7.512-7.513h4.593v-7.683c0-1.332-.539-2.522-1.418-3.4-.879-.879-2.098-1.418-3.401-1.418h-18.681c-1.305 0-2.523.539-3.402 1.418-.879.878-1.417 2.068-1.417 3.4v26.561h5.046c4.139 0 7.484 3.374 7.484 7.512 0 4.139-3.346 7.513-7.484 7.513h-5.046v11.99h28.319v-30.897zm-83.254 9.183c-4.138 0-7.483-3.344-7.483-7.482 0-4.168 3.345-7.512 7.483-7.512h7.994v-16.868c0-1.332-.567-2.522-1.445-3.4-.879-.879-2.07-1.418-3.402-1.418h-18.652c-1.332 0-2.551.539-3.43 1.418-.879.878-1.417 2.068-1.417 3.4v53.576h28.347v-21.714zm-100.234-14.994h28.347v-16.868c0-1.332-.567-2.522-1.446-3.4-.879-.879-2.069-1.418-3.402-1.418h-18.652c-1.333 0-2.523.539-3.402 1.418-.878.878-1.445 2.068-1.445 3.4zm28.347 14.994h-28.347v21.714h28.347zm136.234-51.704h18.681c5.471 0 10.432 2.239 14.003 5.84 3.601 3.57 5.84 8.531 5.84 14.002v53.576h21.09v-46.035c0-4.139 3.373-7.484 7.512-7.484s7.483 3.346 7.483 7.484v299.909c0 4.139-3.345 7.483-7.483 7.483-91.787 0-183.545 0-275.304 0-4.139 0-7.512-3.345-7.512-7.483 0-119.397 0-238.766 0-358.161 0-4.139 3.373-7.484 7.512-7.484h275.304c4.139 0 7.483 3.346 7.483 7.484v24.293c0 4.139-3.345 7.482-7.483 7.482s-7.512-3.344-7.512-7.482v-16.781h-260.309v96.775h21.119v-53.576c0-5.471 2.239-10.432 5.811-14.002 3.6-3.601 8.561-5.84 14.032-5.84h18.652c5.471 0 10.432 2.239 14.032 5.84 3.572 3.57 5.811 8.531 5.811 14.002v53.576h21.543v-53.576c0-5.471 2.24-10.432 5.812-14.002 3.6-3.601 8.561-5.84 14.031-5.84h18.652c5.472 0 10.432 2.239 14.004 5.84 3.6 3.57 5.839 8.531 5.839 14.002v53.576h21.544v-53.576c0-5.471 2.211-10.432 5.811-14.002 3.598-3.6 8.559-5.84 14.002-5.84zm-44.334 237.716h70.64c-1.275-6.52-5.471-10.63-9.666-14.74-7.285-7.172-14.571-14.343-14.571-29.708v-31.464h-22.166v31.464c0 15.365-7.285 22.536-14.57 29.708-4.197 4.11-8.391 8.22-9.667 14.74zm71.066 56.723h-71.491v25.342h71.491zm0-41.727h-71.491v26.701h71.491zm-194.12-14.996h70.669c-1.304-6.52-5.471-10.63-9.667-14.74-7.285-7.172-14.599-14.343-14.599-29.708v-31.464h-22.139v31.464c0 15.365-7.285 22.536-14.599 29.708-4.166 4.11-8.361 8.22-9.665 14.74zm71.094 56.723h-71.491v25.342h71.491zm0-41.727h-71.491v26.701h71.491zm172.121 119.822v36.368c0 4.139-3.345 7.483-7.483 7.483h-75.545c-4.139 0-7.482-3.345-7.482-7.483v-36.368h-111.687v36.368c0 4.139-3.373 7.483-7.512 7.483h-75.516c-4.138 0-7.512-3.345-7.512-7.483v-36.368h-29.027c-4.139 0-7.512-3.347-7.512-7.485v-24.264c0-4.168 3.373-7.512 7.512-7.512s7.483 3.344 7.483 7.512v16.752h335.825v-418.653h-335.824v367.913c0 4.139-3.345 7.512-7.483 7.512s-7.512-3.373-7.512-7.512v-375.425c0-4.139 3.373-7.483 7.512-7.483h343.308v-11.991c0-4.139 3.374-7.512 7.512-7.512h69.421c4.167 0 7.513 3.373 7.513 7.512v219.319c0 4.139-3.346 7.513-7.513 7.513-4.139 0-7.483-3.374-7.483-7.513v-211.835h-54.425v11.99 433.677 11.992h54.425v-211.836c0-4.139 3.345-7.512 7.483-7.512 4.167 0 7.513 3.373 7.513 7.512v219.319c0 4.139-3.346 7.512-7.513 7.512h-69.421c-4.138 0-7.512-3.373-7.512-7.512v-11.99zm-75.516 0v28.857h60.521v-28.857zm-202.225 0v28.857h60.549v-28.857zm80.93-225.725v-21.855h-22.139v21.855zm100.887 0h22.166v-21.855h-22.166z"/></g></svg>